<?xml version="1.0" encoding="utf-8"?>
<!-- Generator: Adobe Illustrator 23.0.2, SVG Export Plug-In . SVG Version: 6.00 Build 0)  -->
<svg version="1.1" id="Layer_1" xmlns="http://www.w3.org/2000/svg" xmlns:xlink="http://www.w3.org/1999/xlink" x="0px" y="0px"
	 viewBox="0 0 512 512" style="enable-background:new 0 0 512 512;" xml:space="preserve">
<style type="text/css">
	.st0{fill:#FE5858;}
	.st1{fill:#90A1EC;stroke:#000000;stroke-miterlimit:10;}
	.st2{fill:#FFFFFF;stroke:#000000;stroke-miterlimit:10;}
	.st3{fill:#94A8D7;}
	.st4{fill:#90D5EC;}
</style>
<path class="st0" d="M398.6,24.4L376.5,2.2C375,0.7,373.1,0,371.2,0H140.8c-1.9,0-3.8,0.7-5.3,2.2l-22.2,22.2
	c-2.9,2.9-2.9,7.6,0,10.6l82.4,83.6l36.2,46.6l-24.6,177.2c-0.6,4.1,2.3,7.9,6.4,8.5c0.4,0,0.7,0.1,1,0.1c3.7,0,6.9-2.7,7.4-6.5
	l24.1-173.8h19.3l6.9,49.7c0.6,4.1,4.4,7,8.5,6.4c4.1-0.6,7-4.4,6.4-8.5l-7.4-53l36.2-46.6l82.4-83.6
	C401.5,32,401.5,27.3,398.6,24.4L398.6,24.4z M335.7,32.3h-96.3c-4.1,0-7.5,3.4-7.5,7.5s3.4,7.5,7.5,7.5h81.3l-27.4,27.4h-74.6
	l-27.4-27.4h13.2c4.1,0,7.5-3.4,7.5-7.5s-3.4-7.5-7.5-7.5h-28.2L158.9,15h194.1L335.7,32.3z M140.8,18.1l65.8,65.8l-7.5,16.6
	l-69.9-70.8L140.8,18.1z M268.5,155.6h-25l-33.4-43l10.3-22.8h71.1l10.3,22.8L268.5,155.6z M312.9,100.5l-7.5-16.6l65.8-65.8
	l11.6,11.6L312.9,100.5z"/>
<path class="st1" d="M292.2,253c-0.6-4.1-4.4-7-8.5-6.4c-4.1,0.6-7,4.4-6.4,8.5l27.2,196L256,494.4l-48.6-43.4l10-71.9
	c0.6-4.1-6.4-8.5-6.4-8.5s-7.9,2.3-8.5,6.4L192,453c-0.3,2.5,0.6,5,2.4,6.6l56.6,50.5c1.4,1.3,3.2,1.9,5,1.9c1.8,0,3.6-0.6,5-1.9
	l56.6-50.5c1.9-1.7,2.8-4.1,2.4-6.6L292.2,253z"/>
<path class="st2" d="M-143,145"/>
<polygon class="st3" points="206.6,449.8 292,364 301.9,375.4 215.2,459.3 "/>
<path class="st4" d="M382.7,350.9"/>
</svg>
